# AST/ASF file generated using VICON BodyLanguage
# -----------------------------------------------
:version 1.10
:name VICON
:units
  mass 1.0
  length 0.45
  angle deg
:documentation
   .ast/.asf automatically generated from VICON data using
   VICON BodyBuilder and BodyLanguage model FoxedUp or BRILLIANT.MOD
:root
   order TX TY TZ RX RY RZ
   axis XYZ
   position 0 0 0  
   orientation 0 0 0 
:bonedata
  begin
     id 1 
     name lhipjoint
     direction 0.528046 -0.759594 0.379717 
     length 2.39752 
     axis 0 0 0  XYZ
  end
  begin
     id 2 
     name lfemur
     direction 0.34202 -0.939693 0  
     length 7.31175  
     axis 0 0 20  XYZ
    dof rx ry rz
    limits (-160.0 20.0)
           (-70.0 70.0)
           (-60.0 70.0)
  end
  begin
     id 3 
     name ltibia
     direction 0.34202 -0.939693 0   
     length 7.52482   
     axis 0 0 20   XYZ
    dof rx
    limits (-10.0 170.0)
  end
  begin
     id 4 
     name lfoot
     direction 0.0675379 -0.185559 0.980309   
     length 2.00961   
     axis -90 7.62852e-016 20   XYZ
    dof rx rz
    limits (-45.0 90.0)
           (-70.0 20.0)
  end
  begin
     id 5 
     name ltoes
     direction 1.5352e-011 -4.22286e-011 1   
     length 1.01383   
     axis -90 7.62852e-016 20   XYZ
    dof rx
    limits (-90.0 20.0)
  end
  begin
     id 6 
     name rhipjoint
     direction -0.510274 -0.769251 0.384544   
     length 2.36742  
     axis 0 0 0  XYZ 
  end
  begin
     id 7 
     name rfemur
     direction -0.34202 -0.939693 0   
     length 7.45325   
     axis 0 0 -20   XYZ
    dof rx ry rz
    limits (-160.0 20.0)
           (-70.0 70.0)
           (-70.0 60.0)
  end
  begin
     id 8 
     name rtibia
     direction -0.34202 -0.939693 0   
     length 7.49587   
     axis 0 0 -20   XYZ
    dof rx
    limits (-10.0 170.0)
 end
 begin
     id 9 
     name rfoot
     direction -0.106475 -0.292536 0.950308   
     length 2.20898  
     axis -90 -7.62852e-016 -20   XYZ
    dof rx rz
    limits (-45.0 90.0)
           (-20.0 70.0)
  end
  begin
     id 10 
     name rtoes
     direction -1.53597e-011 -4.22023e-011 1   
     length 1.10065   
     axis -90 -7.62852e-016 -20   XYZ
    dof rx
    limits (-90.0 20.0)
  end
  begin
     id 11 
     name lowerback
     direction 0.0260024 0.998026 -0.0571652   
     length 2.11214   
     axis 0 0 0   XYZ
    dof rx ry rz
    limits (-20.0 45.0)
           (-30.0 30.0)
           (-30.0 30.0)
  end
  begin
     id 12 
     name upperback
     direction 0.0216202 0.999542 -0.0211766   
     length 2.11689   
     axis 0 0 0   XYZ
    dof rx ry rz
    limits (-20.0 45.0)
           (-30.0 30.0)
           (-30.0 30.0)
  end
  begin
     id 13 
     name thorax
     direction 0.00883312 0.999944 0.00589057   
     length 2.11821   
     axis 0 0 0   XYZ
    dof rx ry rz
    limits (-20.0 45.0)
           (-30.0 30.0)
           (-30.0 30.0)
  end
  begin
     id 14 
     name lowerneck
     direction -0.059386 0.994433 0.0870401   
     length 1.81176   
     axis 0 0 0   XYZ
    dof rx ry rz
    limits (-20.0 45.0)
           (-30.0 30.0)
           (-30.0 30.0)
  end
  begin
     id 15 
     name upperneck
     direction 0.0506457 0.97328 -0.223967   
     length 1.82382   
     axis 0 0 0   XYZ
    dof rx ry rz
    limits (-20.0 45.0)
           (-30.0 30.0)
           (-30.0 30.0)
  end
  begin
     id 16
     name head
     direction 0.0205902 0.996147 -0.0852487  
     length 1.84805  
     axis 0 0 0   XYZ
    dof rx ry rz
    limits (-20.0 45.0)
           (-30.0 30.0)
           (-30.0 30.0)
  end
  begin
     id 17 
     name lclavicle
     direction 0.949493 0.303881 -0.0782325  
     length 3.60584  
     axis 0 0 0   XYZ
    dof ry rz
    limits (-20.0 10.0)
           (0.0 20.0)
  end
  begin
     id 18 
     name lhumerus
     direction 1 -4.48965e-011 1.48782e-027   
     length 4.95681   
     axis 180 -30 -90   XYZ
    dof rx ry rz
    limits (-60.0 90.0)
           (-90.0 90.0)
           (-90.0 90.0)
  end
  begin
     id 19
     name lradius
     direction 1 -4.48952e-011 2.06528e-027   
     length 3.40915   
     axis 180 -30 -90   XYZ
    dof rx
    limits (-10.0 170.0)
  end
  begin
     id 20
     name lwrist
     direction 1 -4.48964e-011 1.28021e-027   
     length 1.70457   
     axis -1.61767e-015 90 90   XYZ
    dof ry
    limits (-180.0 0.0)
 end
  begin
     id 21 
     name lhand
     direction 1 -4.49094e-011 2.54887e-027   
     length 0.616403   
     axis -1.63363e-015 90 90   XYZ
    dof rx rz
    limits (-90.0 90.0)
           (-45.0 45.0)
  end
  begin
     id 22 
     name lfingers
     direction 1 -4.49002e-011 5.11407e-027   
     length 0.49696   
     axis -3.26723e-015 90 90   XYZ
    dof rx
    limits (0.0 90.0)
  end
  begin
     id 23
     name lthumb
     direction 0.707107 -6.34998e-011 0.707107   
     length 0.713539   
     axis -90 45 -2.25915e-014   XYZ
    dof rx rz
    limits (-45.0 45.0)
           (-45.0 45.0)
  end
  begin
     id 24 
     name rclavicle
     direction -0.937751 0.334612 -0.0930482   
     length 3.46287  
     axis 0 0 0   XYZ 
    dof ry rz
    limits (-10.0 20.0)
           (-20.0 0.0)
  end
  begin
     id 25 
     name rhumerus
     direction -1 -4.48962e-011 3.59972e-027  
     length 5.352   
     axis 180 30 90   XYZ
    dof rx ry rz
    limits (-90.0 60.0)
           (-90.0 90.0)
           (-90.0 90.0)
  end
  begin
     id 26 
     name rradius
     direction -1 -4.48987e-011 -3.76925e-027   
     length 3.43721   
     axis 180 30 90   XYZ
    dof rx
    limits (-10.0 170.0)
  end
  begin
     id 27 
     name rwrist
     direction -1 -4.48943e-011 1.28112e-027   
     length 1.7186   
     axis -1.61767e-015 -90 -90   XYZ
    dof ry
    limits (-180.0 0.0)
  end
  begin
     id 28
     name rhand
     direction -1 -4.49027e-011 2.55483e-027   
     length 0.72009   
     axis -1.63363e-015 -90 -90   XYZ
    dof rx rz
    limits (-90.0 90.0)
           (-45.0 45.0)
  end
  begin
     id 29
     name rfingers
     direction -1 -4.48827e-011 5.14506e-027   
     length 0.580555   
     axis -3.26723e-015 -90 -90   XYZ
    dof rx
    limits (0.0 90.0)
  end
  begin
     id 30
     name rthumb
     direction -0.707107 -6.34936e-011 0.707107   
     length 0.833564   
     axis -90 -45 2.25915e-014   XYZ
    dof rx rz
    limits (-45.0 45.0)
           (-45.0 45.0)
  end
:hierarchy
  begin
    root lhipjoint rhipjoint lowerback
    lhipjoint lfemur
    lfemur ltibia
    ltibia lfoot
    lfoot ltoes
    rhipjoint rfemur
    rfemur rtibia
    rtibia rfoot
    rfoot rtoes
    lowerback upperback
    upperback thorax
    thorax lowerneck lclavicle rclavicle
    lowerneck upperneck
    upperneck head
    lclavicle lhumerus
    lhumerus lradius
    lradius lwrist
    lwrist lhand lthumb
    lhand lfingers
    rclavicle rhumerus
    rhumerus rradius
    rradius rwrist
    rwrist rhand rthumb
    rhand rfingers
  end

#!OML:ASF H:\Terrain\Patient Classification 1\Terrain2\Thursday\justin.ASF
:FULLY-SPECIFIED
:DEGREES
122
root 15.1283 20.8404 20.6301 146.768 -77.126 -154.881
lowerback 4.23173 1.36067 5.17138
upperback 3.87798 1.75913 3.24234
thorax 1.68827 0.883138 0.395181
lowerneck -8.45879 1.5402 -8.24628
upperneck 42.2837 0.00454537 4.01321
head 16.6689 -1.69385 3.0336
rclavicle 9.82742e-015 3.61788e-014
rhumerus -42.8826 -1.54591 -79.5619
rradius 49.566
rwrist -19.4755
rhand -18.7141 6.67502
rfingers 7.12502
rthumb 7.58115 -23.1691
lclavicle 9.82742e-015 3.61788e-014
lhumerus -50.6839 9.86681 75.9176
lradius 24.2
lwrist 1.15909
lhand -10.566 20.0566
lfingers 7.12502
lthumb 15.4385 49.46
rfemur 1.00221 -0.283445 25.978
rtibia 76.8535
rfoot -33.7848 5.17545
rtoes -15.552
lfemur -12.966 2.82152 -10.2541
ltibia 14.5127
lfoot 24.8556 5.00418
ltoes 8.25638
123
root 14.9914 20.7302 20.6516 147.318 -77.1888 -155.456
lowerback 4.03965 1.36713 4.96054
upperback 3.81132 1.75865 3.20912
thorax 1.71942 0.881413 0.48164
lowerneck -8.41519 1.45442 -8.25491
upperneck 42.0804 -0.0426642 3.8744
head 16.5519 -1.71918 2.96021
rclavicle -1.33434e-014 1.47101e-014
rhumerus -43.1177 -1.65825 -79.3113
rradius 49.6683
rwrist -19.528
rhand -18.5067 6.15801
rfingers 7.12502
rthumb 7.78129 -23.6788
lclavicle -1.33434e-014 1.47101e-014
lhumerus -51.4108 10.1367 75.3587
lradius 24.6717
lwrist 0.80925
lhand -9.40533 18.8743
lfingers 7.12502
lthumb 16.5562 48.188
rfemur 0.733155 -0.593918 25.3292
rtibia 78.6393
rfoot -33.2155 5.71753
rtoes -14.9771
lfemur -11.7007 3.03251 -10.6069
ltibia 13.0912
lfoot 25.7372 4.80078
ltoes 5.92148
124
root 14.851 20.6173 20.6772 149.398 -77.3775 -157.502
lowerback 3.69035 1.42356 4.46118
upperback 3.74871 1.81517 3.08344
thorax 1.83622 0.906999 0.636543
lowerneck -8.28536 1.43956 -8.1175
upperneck 41.9144 -0.00554187 3.66088
head 16.4268 -1.6996 2.83987
rclavicle -4.87954e-014 -1.74931e-014
rhumerus -43.4615 -2.04486 -79.0055
rradius 49.9714
rwrist -19.4616
rhand -18.5102 5.93558
rfingers 7.12502
rthumb 7.77795 -23.9014
lclavicle -4.87954e-014 -1.74931e-014
lhumerus -52.1771 11.1322 73.6875
lradius 24.6197
lwrist -2.3608
lhand -5.55715 15.6266
lfingers 7.12502
lthumb 20.258 44.5901
rfemur 0.342007 -0.619696 24.3027
rtibia 80.4909
rfoot -32.5154 6.92998
rtoes -12.8008
lfemur -10.5876 2.30985 -11.081
ltibia 12.0538
lfoot 25.8982 7.2946
ltoes 11.478
125
root 14.7154 20.4679 20.7028 151.034 -77.4272 -159.2
lowerback 3.48099 1.47506 4.09943
upperback 3.70932 1.876 2.95276
thorax 1.90409 0.935715 0.707186
lowerneck -8.09908 1.46501 -8.0268
upperneck 41.7332 0.0145529 3.65088
head 16.2783 -1.66901 2.81612
rclavicle 3.11284e-014 -2.78299e-015
rhumerus -43.8197 -2.44942 -78.7531
rradius 50.3491
rwrist -19.1709
rhand -18.2142 5.63872
rfingers 7.12502
rthumb 8.06363 -24.1874
lclavicle 3.11284e-014 -2.78299e-015
lhumerus -52.7268 8.32448 76.7133
lradius 26.8329
lwrist 5.83562
lhand -11.0016 21.4195
lfingers 7.12502
lthumb 15.0189 50.8548
rfemur -0.0183386 -0.649882 23.4236
rtibia 82.3933
rfoot -31.8752 7.61874
rtoes -12.4465
lfemur -9.49419 2.83263 -11.7321
ltibia 10.8511
lfoot 27.4673 7.13378
ltoes 9.84666
126
root 14.5808 20.2933 20.7233 151.817 -77.3776 -160.149
lowerback 3.40628 1.43414 3.77461
upperback 3.7052 1.81286 2.97393
thorax 1.92795 0.897601 0.912512
lowerneck -7.99433 1.54817 -8.24322
upperneck 41.5833 0.187745 3.68459
head 16.1553 -1.61933 2.89107
rclavicle -8.58812e-015 3.10104e-014
rhumerus -44.2327 -2.33875 -78.5284
rradius 50.8502
rwrist -18.8508
rhand -17.5801 4.90697
rfingers 7.12502
rthumb 8.67553 -24.8948
lclavicle -8.58812e-015 3.10104e-014
lhumerus -53.5243 8.45821 76.4632
lradius 27.2321
lwrist 6.51879
lhand -10.1303 19.895
lfingers 7.12502
lthumb 15.8582 49.2656
rfemur -0.275042 -0.7564 22.7392
rtibia 84.3113
rfoot -31.2771 8.19321
rtoes -12.7707
lfemur -8.27519 3.09444 -12.0954
ltibia 9.68065
lfoot 28.9709 7.34192
ltoes 9.00793
127
root 14.4376 20.1479 20.7428 153.573 -77.3999 -162.077
lowerback 3.26711 1.51026 3.39277
upperback 3.75191 1.9069 2.80693
thorax 2.04624 0.942525 0.957
lowerneck -8.05944 1.5155 -8.30902
upperneck 41.5182 0.153819 3.74879
head 16.1385 -1.62914 2.92645
rclavicle -1.8744e-014 9.54166e-015
rhumerus -44.6302 -2.62772 -78.3825
rradius 51.4075
rwrist -18.7406
rhand -17.1405 4.42613
rfingers 7.12502
rthumb 9.09974 -25.3576
lclavicle -1.8744e-014 9.54166e-015
lhumerus -54.0938 8.045 76.4051
lradius 27.678
lwrist 7.68115
lhand -9.72594 18.508
lfingers 7.12502
lthumb 16.2475 47.8472
rfemur -0.422777 -0.659085 21.7703
rtibia 86.0436
rfoot -30.4741 9.70877
rtoes -10.3352
lfemur -6.87273 3.39804 -12.6909
ltibia 8.4428
lfoot 30.2771 7.60362
ltoes 9.82748
128
root 14.2905 20.0207 20.7671 154.803 -77.4062 -163.308
lowerback 2.94279 1.62451 3.31433
upperback 3.81132 2.05014 2.55111
thorax 2.29637 1.02191 0.747593
lowerneck -8.11001 1.44277 -8.06944
upperneck 41.3542 0.0115089 3.78078
head 16.0737 -1.63157 2.875
rclavicle -2.69023e-014 -1.27222e-014
rhumerus -44.8065 -3.24766 -78.3749
rradius 51.8542
rwrist -18.7533
rhand -17.2271 4.11979
rfingers 7.12502
rthumb 9.0162 -25.6675
lclavicle -2.69023e-014 -1.27222e-014
lhumerus -54.5398 7.21214 76.5372
lradius 28.215
lwrist 9.11048
lhand -10.0605 17.7099
lfingers 7.12502
lthumb 15.9254 47.0751
rfemur -0.47733 -0.506604 20.9973
rtibia 87.5277
rfoot -29.7397 10.8591
rtoes -8.31337
lfemur -6.13513 3.66071 -13.1533
ltibia 8.30418
lfoot 30.8771 6.53965
ltoes 7.49476
129
root 14.1508 19.8581 20.7936 154.488 -77.271 -162.877
lowerback 2.59068 1.58524 3.32998
upperback 3.8188 1.97628 2.66626
thorax 2.49752 0.985097 0.868659
lowerneck -8.0004 1.53357 -8.08916
upperneck 41.0972 0.241409 3.62402
head 15.8912 -1.54131 2.83688
rclavicle 1.67752e-014 -1.19271e-014
rhumerus -44.8953 -3.08143 -78.2094
rradius 52.2967
rwrist -18.9544
rhand -16.9396 3.72009
rfingers 7.12502
rthumb 9.29364 -26.0551
lclavicle 1.67752e-014 -1.19271e-014
lhumerus -55.2496 7.28123 76.5732
lradius 28.7176
lwrist 10.023
lhand -9.91212 17.5203
lfingers 7.12502
lthumb 16.0683 46.8741
rfemur -0.688195 -0.250339 20.7496
rtibia 89.036
rfoot -29.0155 11.5935
rtoes -8.07775
lfemur -5.7453 3.91354 -13.1586
ltibia 8.64646
lfoot 30.6505 5.80726
ltoes 5.23664
130
root 14.0151 19.6645 20.825 154.373 -77.2035 -162.752
lowerback 2.38721 1.4934 3.10433
upperback 3.82655 1.83122 2.93757
thorax 2.60198 0.901244 1.27969
lowerneck -7.93397 1.62205 -8.30508
upperneck 40.9353 0.577898 3.27429
head 15.7684 -1.46874 2.76681
rclavicle 1.49224e-014 1.98785e-014
rhumerus -45.1008 -2.5582 -77.7937
rradius 52.8797
rwrist -19.2015
rhand -16.6408 3.80808
rfingers 7.12502
rthumb 9.58194 -25.954
lclavicle 1.49224e-014 1.98785e-014
lhumerus -56.0191 7.89911 76.4035
lradius 29.0055
lwrist 10.3704
lhand -8.95781 17.1331
lfingers 7.12502
lthumb 16.9871 46.4103
rfemur -0.809671 -0.0115596 20.3093
rtibia 90.5624
rfoot -28.1409 12.5406
rtoes -8.20193
lfemur -5.58753 4.11526 -13.2882
ltibia 9.59431
lfoot 29.8776 6.28067
ltoes 4.95714
131
root 13.8732 19.4919 20.8551 153.786 -77.1924 -162.169
lowerback 2.2347 1.53438 3.20991
upperback 3.86136 1.87432 2.98217
thorax 2.72636 0.925263 1.27219
lowerneck -8.04126 1.51862 -8.22133
upperneck 40.8608 0.501222 3.09982
head 15.766 -1.50142 2.66538
rclavicle 1.70869e-014 -3.33958e-014
rhumerus -45.4855 -2.82692 -77.5113
rradius 53.6159
rwrist -19.3366
rhand -16.7166 3.71076
rfingers 7.12502
rthumb 9.5088 -26.0547
lclavicle 1.70869e-014 -3.33958e-014
lhumerus -56.4896 7.4617 76.4975
lradius 29.2765
lwrist 10.9999
lhand -8.44773 16.8407
lfingers 7.12502
lthumb 17.478 46.075
rfemur -0.616195 0.00443695 19.894
rtibia 91.8049
rfoot -27.4005 13.1198
rtoes -9.06
lfemur -5.66883 4.21997 -13.3316
ltibia 11.1189
lfoot 29.0418 7.00091
ltoes 5.83457
